<svg width="169" height="32" viewBox="0 0 169 32" fill="none" xmlns="http://www.w3.org/2000/svg">
<path d="M39.244 24C39.0973 24 38.9727 23.9487 38.87 23.846C38.7673 23.7433 38.716 23.6187 38.716 23.472V9.15C38.716 8.98867 38.76 8.85667 38.848 8.754C38.9507 8.65133 39.0827 8.6 39.244 8.6H41.18C41.3413 8.6 41.4733 8.65133 41.576 8.754C41.6787 8.85667 41.73 8.98867 41.73 9.15V14.298L46.702 8.996C46.8927 8.732 47.1787 8.6 47.56 8.6H49.738C49.8553 8.6 49.958 8.644 50.046 8.732C50.1487 8.82 50.2 8.93 50.2 9.062C50.2 9.16467 50.1707 9.25267 50.112 9.326L44.062 15.97L50.53 23.252C50.6033 23.34 50.64 23.4353 50.64 23.538C50.64 23.67 50.5887 23.78 50.486 23.868C50.398 23.956 50.2953 24 50.178 24H47.912C47.5453 24 47.2593 23.868 47.054 23.604L41.73 17.774V23.472C41.73 23.6333 41.6787 23.7653 41.576 23.868C41.4733 23.956 41.3413 24 41.18 24H39.244ZM56.6359 24.22C55.0079 24.22 53.7099 23.7507 52.7419 22.812C51.7885 21.8587 51.2825 20.524 51.2239 18.808L51.2019 18.258L51.2239 17.708C51.2972 16.036 51.8105 14.7233 52.7639 13.77C53.7319 12.8167 55.0225 12.34 56.6359 12.34C58.3665 12.34 59.7012 12.868 60.6399 13.924C61.5932 14.98 62.0699 16.388 62.0699 18.148V18.61C62.0699 18.7567 62.0185 18.8813 61.9159 18.984C61.8132 19.0867 61.6812 19.138 61.5199 19.138H54.2159V19.314C54.2452 20.1207 54.4652 20.8027 54.8759 21.36C55.3012 21.9027 55.8805 22.174 56.6139 22.174C57.4792 22.174 58.1759 21.8367 58.7039 21.162C58.8359 21.0007 58.9385 20.898 59.0119 20.854C59.0999 20.81 59.2245 20.788 59.3859 20.788H61.2779C61.4099 20.788 61.5199 20.832 61.6079 20.92C61.7105 20.9933 61.7619 21.0887 61.7619 21.206C61.7619 21.558 61.5492 21.976 61.1239 22.46C60.7132 22.9293 60.1192 23.34 59.3419 23.692C58.5645 24.044 57.6625 24.22 56.6359 24.22ZM59.0779 17.29V17.224C59.0779 16.3587 58.8579 15.662 58.4179 15.134C57.9925 14.606 57.3985 14.342 56.6359 14.342C55.8732 14.342 55.2792 14.606 54.8539 15.134C54.4285 15.662 54.2159 16.3587 54.2159 17.224V17.29H59.0779ZM69.3331 24.22C67.7051 24.22 66.4071 23.7507 65.4391 22.812C64.4858 21.8587 63.9798 20.524 63.9211 18.808L63.8991 18.258L63.9211 17.708C63.9945 16.036 64.5078 14.7233 65.4611 13.77C66.4291 12.8167 67.7198 12.34 69.3331 12.34C71.0638 12.34 72.3985 12.868 73.3371 13.924C74.2905 14.98 74.7671 16.388 74.7671 18.148V18.61C74.7671 18.7567 74.7158 18.8813 74.6131 18.984C74.5105 19.0867 74.3785 19.138 74.2171 19.138H66.9131V19.314C66.9425 20.1207 67.1625 20.8027 67.5731 21.36C67.9985 21.9027 68.5778 22.174 69.3111 22.174C70.1765 22.174 70.8731 21.8367 71.4011 21.162C71.5331 21.0007 71.6358 20.898 71.7091 20.854C71.7971 20.81 71.9218 20.788 72.0831 20.788H73.9751C74.1071 20.788 74.2171 20.832 74.3051 20.92C74.4078 20.9933 74.4591 21.0887 74.4591 21.206C74.4591 21.558 74.2465 21.976 73.8211 22.46C73.4105 22.9293 72.8165 23.34 72.0391 23.692C71.2618 24.044 70.3598 24.22 69.3331 24.22ZM71.7751 17.29V17.224C71.7751 16.3587 71.5551 15.662 71.1151 15.134C70.6898 14.606 70.0958 14.342 69.3331 14.342C68.5705 14.342 67.9765 14.606 67.5511 15.134C67.1258 15.662 66.9131 16.3587 66.9131 17.224V17.29H71.7751ZM77.6304 24C77.4837 24 77.3591 23.9487 77.2564 23.846C77.1537 23.7433 77.1024 23.6187 77.1024 23.472V13.088C77.1024 12.9413 77.1537 12.8167 77.2564 12.714C77.3591 12.6113 77.4837 12.56 77.6304 12.56H79.4344C79.5811 12.56 79.7057 12.6113 79.8084 12.714C79.9111 12.8167 79.9624 12.9413 79.9624 13.088V13.99C80.8277 12.89 82.0524 12.34 83.6364 12.34C84.9857 12.34 86.0564 12.7873 86.8484 13.682C87.6404 14.562 88.0364 15.7647 88.0364 17.29V23.472C88.0364 23.6187 87.9851 23.7433 87.8824 23.846C87.7944 23.9487 87.6697 24 87.5084 24H85.5724C85.4257 24 85.3011 23.9487 85.1984 23.846C85.0957 23.7433 85.0444 23.6187 85.0444 23.472V17.422C85.0444 16.5567 84.8317 15.8893 84.4064 15.42C83.9957 14.936 83.3944 14.694 82.6024 14.694C81.8251 14.694 81.2091 14.936 80.7544 15.42C80.3144 15.904 80.0944 16.5713 80.0944 17.422V23.472C80.0944 23.6187 80.0431 23.7433 79.9404 23.846C79.8524 23.9487 79.7277 24 79.5664 24H77.6304ZM95.2969 24C95.1502 24 95.0329 23.956 94.9449 23.868C94.8569 23.78 94.8129 23.6627 94.8129 23.516V9.92H90.4569C90.3102 9.92 90.1929 9.876 90.1049 9.788C90.0169 9.7 89.9729 9.58267 89.9729 9.436V9.106C89.9729 8.95933 90.0169 8.842 90.1049 8.754C90.1929 8.65133 90.3102 8.6 90.4569 8.6H100.533C100.694 8.6 100.819 8.644 100.907 8.732C100.995 8.82 101.039 8.94467 101.039 9.106V9.436C101.039 9.58267 100.988 9.7 100.885 9.788C100.797 9.876 100.68 9.92 100.533 9.92H96.1989V23.516C96.1989 23.6627 96.1476 23.78 96.0449 23.868C95.9569 23.956 95.8396 24 95.6929 24H95.2969ZM103.419 24C103.272 24 103.155 23.956 103.067 23.868C102.979 23.78 102.935 23.6627 102.935 23.516V8.864C102.935 8.71733 102.979 8.6 103.067 8.512C103.155 8.424 103.272 8.38 103.419 8.38H103.793C103.94 8.38 104.057 8.424 104.145 8.512C104.233 8.6 104.277 8.71733 104.277 8.864V14.078C104.717 13.506 105.216 13.0733 105.773 12.78C106.345 12.4867 107.078 12.34 107.973 12.34C109.41 12.34 110.518 12.802 111.295 13.726C112.072 14.6353 112.461 15.816 112.461 17.268V23.516C112.461 23.6627 112.417 23.78 112.329 23.868C112.241 23.956 112.124 24 111.977 24H111.603C111.456 24 111.339 23.956 111.251 23.868C111.163 23.78 111.119 23.6627 111.119 23.516V17.378C111.119 16.19 110.826 15.266 110.239 14.606C109.667 13.946 108.838 13.616 107.753 13.616C106.697 13.616 105.854 13.9533 105.223 14.628C104.592 15.288 104.277 16.2047 104.277 17.378V23.516C104.277 23.6627 104.233 23.78 104.145 23.868C104.057 23.956 103.94 24 103.793 24H103.419ZM120.157 24.22C118.764 24.22 117.642 23.7653 116.791 22.856C115.94 21.932 115.456 20.7 115.339 19.16L115.317 18.28L115.339 17.4C115.456 15.8747 115.933 14.65 116.769 13.726C117.62 12.802 118.749 12.34 120.157 12.34C121.682 12.34 122.87 12.846 123.721 13.858C124.586 14.87 125.019 16.256 125.019 18.016V18.346C125.019 18.4927 124.968 18.61 124.865 18.698C124.777 18.786 124.66 18.83 124.513 18.83H116.681V19.05C116.71 19.7393 116.864 20.3847 117.143 20.986C117.436 21.5727 117.84 22.0493 118.353 22.416C118.866 22.768 119.468 22.944 120.157 22.944C120.964 22.944 121.616 22.79 122.115 22.482C122.628 22.1593 122.995 21.8367 123.215 21.514C123.347 21.338 123.442 21.228 123.501 21.184C123.574 21.14 123.699 21.118 123.875 21.118H124.227C124.359 21.118 124.469 21.1547 124.557 21.228C124.645 21.3013 124.689 21.3967 124.689 21.514C124.689 21.822 124.491 22.196 124.095 22.636C123.714 23.0613 123.178 23.4353 122.489 23.758C121.8 24.066 121.022 24.22 120.157 24.22ZM123.677 17.598V17.51C123.677 16.3807 123.354 15.4493 122.709 14.716C122.078 13.9827 121.228 13.616 120.157 13.616C119.086 13.616 118.236 13.9827 117.605 14.716C116.989 15.4493 116.681 16.3807 116.681 17.51V17.598H123.677ZM128.405 24C128.258 24 128.141 23.956 128.053 23.868C127.965 23.78 127.921 23.6627 127.921 23.516V13.044C127.921 12.8973 127.965 12.78 128.053 12.692C128.141 12.604 128.258 12.56 128.405 12.56H128.779C128.925 12.56 129.043 12.604 129.131 12.692C129.219 12.78 129.263 12.8973 129.263 13.044V13.814C129.644 13.33 130.084 12.9633 130.583 12.714C131.096 12.4647 131.705 12.34 132.409 12.34C134.051 12.34 135.225 13.0293 135.929 14.408C136.281 13.7773 136.779 13.2787 137.425 12.912C138.085 12.5307 138.833 12.34 139.669 12.34C140.886 12.34 141.876 12.758 142.639 13.594C143.401 14.4153 143.783 15.5887 143.783 17.114V23.516C143.783 23.6627 143.739 23.78 143.651 23.868C143.563 23.956 143.445 24 143.299 24H142.925C142.778 24 142.661 23.956 142.573 23.868C142.485 23.78 142.441 23.6627 142.441 23.516V17.334C142.441 15.9993 142.162 15.046 141.605 14.474C141.062 13.902 140.343 13.616 139.449 13.616C138.657 13.616 137.967 13.9093 137.381 14.496C136.809 15.068 136.523 16.014 136.523 17.334V23.516C136.523 23.6627 136.479 23.78 136.391 23.868C136.303 23.956 136.185 24 136.039 24H135.665C135.518 24 135.401 23.956 135.313 23.868C135.225 23.78 135.181 23.6627 135.181 23.516V17.334C135.181 16.014 134.895 15.068 134.323 14.496C133.751 13.9093 133.039 13.616 132.189 13.616C131.397 13.616 130.707 13.9093 130.121 14.496C129.549 15.068 129.263 16.0067 129.263 17.312V23.516C129.263 23.6627 129.219 23.78 129.131 23.868C129.043 23.956 128.925 24 128.779 24H128.405ZM151.481 24.22C150.088 24.22 148.966 23.7653 148.115 22.856C147.264 21.932 146.78 20.7 146.663 19.16L146.641 18.28L146.663 17.4C146.78 15.8747 147.257 14.65 148.093 13.726C148.944 12.802 150.073 12.34 151.481 12.34C153.006 12.34 154.194 12.846 155.045 13.858C155.91 14.87 156.343 16.256 156.343 18.016V18.346C156.343 18.4927 156.292 18.61 156.189 18.698C156.101 18.786 155.984 18.83 155.837 18.83H148.005V19.05C148.034 19.7393 148.188 20.3847 148.467 20.986C148.76 21.5727 149.164 22.0493 149.677 22.416C150.19 22.768 150.792 22.944 151.481 22.944C152.288 22.944 152.94 22.79 153.439 22.482C153.952 22.1593 154.319 21.8367 154.539 21.514C154.671 21.338 154.766 21.228 154.825 21.184C154.898 21.14 155.023 21.118 155.199 21.118H155.551C155.683 21.118 155.793 21.1547 155.881 21.228C155.969 21.3013 156.013 21.3967 156.013 21.514C156.013 21.822 155.815 22.196 155.419 22.636C155.038 23.0613 154.502 23.4353 153.813 23.758C153.124 24.066 152.346 24.22 151.481 24.22ZM155.001 17.598V17.51C155.001 16.3807 154.678 15.4493 154.033 14.716C153.402 13.9827 152.552 13.616 151.481 13.616C150.41 13.616 149.56 13.9827 148.929 14.716C148.313 15.4493 148.005 16.3807 148.005 17.51V17.598H155.001ZM162.875 24.22C161.922 24.22 161.115 24.0587 160.455 23.736C159.81 23.4133 159.318 23.0467 158.981 22.636C158.658 22.2253 158.497 21.8953 158.497 21.646C158.497 21.514 158.548 21.4113 158.651 21.338C158.754 21.25 158.864 21.206 158.981 21.206H159.311C159.414 21.206 159.494 21.228 159.553 21.272C159.626 21.3013 159.707 21.3747 159.795 21.492C160.118 21.9467 160.506 22.306 160.961 22.57C161.43 22.8193 162.068 22.944 162.875 22.944C163.784 22.944 164.518 22.7753 165.075 22.438C165.632 22.086 165.911 21.5873 165.911 20.942C165.911 20.546 165.794 20.2233 165.559 19.974C165.339 19.7247 164.972 19.512 164.459 19.336C163.96 19.1453 163.212 18.9327 162.215 18.698C160.91 18.4047 160.015 18.0013 159.531 17.488C159.062 16.9747 158.827 16.322 158.827 15.53C158.827 14.9873 158.974 14.474 159.267 13.99C159.575 13.506 160.022 13.11 160.609 12.802C161.21 12.494 161.929 12.34 162.765 12.34C163.645 12.34 164.386 12.494 164.987 12.802C165.603 13.0953 166.058 13.44 166.351 13.836C166.659 14.232 166.813 14.5547 166.813 14.804C166.813 14.936 166.762 15.046 166.659 15.134C166.571 15.2073 166.461 15.244 166.329 15.244H165.999C165.794 15.244 165.632 15.1487 165.515 14.958C165.222 14.518 164.884 14.188 164.503 13.968C164.136 13.7333 163.557 13.616 162.765 13.616C161.914 13.616 161.269 13.792 160.829 14.144C160.389 14.496 160.169 14.958 160.169 15.53C160.169 15.882 160.257 16.1753 160.433 16.41C160.609 16.6447 160.939 16.8647 161.423 17.07C161.907 17.2607 162.611 17.4587 163.535 17.664C164.899 17.972 165.86 18.3827 166.417 18.896C166.974 19.4093 167.253 20.0913 167.253 20.942C167.253 21.5433 167.084 22.0933 166.747 22.592C166.41 23.0907 165.911 23.4867 165.251 23.78C164.591 24.0733 163.799 24.22 162.875 24.22Z" fill="#353C55"/>
<g clip-path="url(#clip0)">
<path d="M29.0304 1.57179C29.1843 1.40044 29.2698 1.17723 29.2701 0.945611C29.2701 0.696583 29.173 0.457636 28.9997 0.280801C28.8265 0.103967 28.5912 0.00356733 28.3452 0.00146484H28.3338L12.8876 0.00943573H12.8762C12.657 0.00939806 12.4401 0.0552507 12.2392 0.144111C12.0383 0.232972 11.8578 0.36292 11.7089 0.525794C10.6895 1.56737 8.07833 4.19698 3.36709 8.70958C-2.93322 14.7438 1.53912 20.7009 1.53912 20.7009L7.30129 26.5332C5.94934 25.0709 7.60843 23.1428 7.60843 23.1428L28.9709 1.63999C28.9866 1.62494 29.0024 1.60899 29.0172 1.59305L29.0321 1.57711L29.0304 1.57179Z" fill="url(#paint0_linear)"/>
<path d="M29.7525 30.4244L29.7473 30.4191L17.1519 17.6864C17.0627 17.5975 16.9571 17.5273 16.841 17.4798C16.725 17.4324 16.6008 17.4086 16.4756 17.41C16.3505 17.4113 16.2268 17.4376 16.1117 17.4875C15.9967 17.5374 15.8925 17.6098 15.8052 17.7006V17.7006L9.14436 24.407C7.45465 26.4601 8.46883 27.5176 8.46883 27.5176L12.3925 31.6316C12.4928 31.7466 12.6162 31.8385 12.7544 31.9013C12.8926 31.9641 13.0425 31.9963 13.1941 31.9956H29.035C29.0455 31.9956 29.0551 31.9956 29.0665 31.9956C29.2458 31.9946 29.421 31.9411 29.571 31.8415C29.721 31.742 29.8393 31.6007 29.9118 31.4347C29.9843 31.2687 30.0079 31.085 29.9796 30.9057C29.9513 30.7265 29.8725 30.5593 29.7525 30.4244V30.4244Z" fill="url(#paint1_linear)"/>
</g>
<defs>
<linearGradient id="paint0_linear" x1="1.4875" y1="21.8169" x2="13.3345" y2="9.84829" gradientUnits="userSpaceOnUse">
<stop stop-color="#63A2FE"/>
<stop offset="1" stop-color="#257CFF"/>
</linearGradient>
<linearGradient id="paint1_linear" x1="8.2761" y1="26.4919" x2="20.6899" y2="26.4919" gradientUnits="userSpaceOnUse">
<stop stop-color="#63A2FE"/>
<stop offset="1" stop-color="#257CFF"/>
</linearGradient>
<clipPath id="clip0">
<rect width="30" height="32" fill="white"/>
</clipPath>
</defs>
</svg>
